<svg xmlns="http://www.w3.org/2000/svg" viewBox="0 0 256 256"><rect width="256" height="256" fill="#0a0908" rx="32"/><svg x="40" y="68" width="176" height="120" viewBox="0 0 436 326" preserveAspectRatio="xMidYMid meet"><g transform="translate(0.000000,326.000000) scale(0.010000,-0.010000)"
fill="#d4af37" stroke="none">
<path d="M8200 30900 c0 -65 -1167 -100 -3300 -100 -3233 0 -3300 -4 -3300
-200 0 -183 67 -200 800 -200 467 0 800 -42 800 -100 0 -55 160 -100 355 -100
243 0 431 -77 600 -245 168 -169 245 -357 245 -600 0 -195 45 -355 100 -355
66 0 100 -2833 100 -8300 0 -5467 -34 -8300 -100 -8300 -55 0 -100 -135 -100
-300 0 -165 -45 -300 -100 -300 -55 0 -100 -90 -100 -200 0 -133 -67 -200
-200 -200 -110 0 -200 -45 -200 -100 0 -55 -90 -100 -200 -100 -110 0 -200
-45 -200 -100 0 -59 -367 -100 -900 -100 -833 0 -900 -15 -900 -200 0 -196 67
-200 3100 -200 2000 0 3100 -35 3100 -100 0 -63 733 -100 2000 -100 1267 0
2000 37 2000 100 0 55 225 100 500 100 275 0 500 45 500 100 0 55 180 100 400
100 220 0 400 45 400 100 0 55 135 100 300 100 165 0 300 45 300 100 0 55 135
100 300 100 165 0 300 45 300 100 0 55 90 100 200 100 110 0 200 45 200 100 0
55 90 100 200 100 110 0 200 45 200 100 0 55 90 100 200 100 110 0 200 45 200
100 0 55 80 100 178 100 98 0 243 90 322 200 79 110 214 200 300 200 86 0 221
90 300 200 198 275 700 275 700 0 0 -110 45 -200 100 -200 55 0 100 -135 100
-300 0 -165 45 -300 100 -300 55 0 100 -90 100 -200 0 -110 45 -200 100 -200
55 0 100 -90 100 -200 0 -110 45 -200 100 -200 55 0 100 -90 100 -200 0 -110
45 -200 100 -200 55 0 100 -90 100 -200 0 -110 45 -200 100 -200 55 0 100 -90
100 -200 0 -110 45 -200 100 -200 55 0 100 -135 100 -300 0 -165 45 -300 100
-300 55 0 100 -90 100 -200 0 -110 45 -200 100 -200 55 0 100 -90 100 -200 0
-110 45 -200 100 -200 55 0 100 -90 100 -200 0 -110 45 -200 100 -200 55 0
100 -90 100 -200 0 -110 45 -200 100 -200 55 0 100 -135 100 -300 0 -165 45
-300 100 -300 55 0 100 -90 100 -200 0 -110 45 -200 100 -200 55 0 100 -90
100 -200 0 -110 45 -200 100 -200 55 0 100 -90 100 -200 0 -110 45 -200 100
-200 55 0 100 -90 100 -200 0 -110 45 -200 100 -200 55 0 100 -135 100 -300 0
-165 45 -300 100 -300 55 0 100 -90 100 -200 0 -110 45 -200 100 -200 55 0
100 -90 100 -200 0 -110 45 -200 100 -200 55 0 100 -90 100 -200 0 -110 45
-200 100 -200 55 0 100 -90 100 -200 0 -110 45 -200 100 -200 55 0 100 -90
100 -200 0 -110 45 -200 100 -200 55 0 100 -135 100 -300 0 -165 45 -300 100
-300 55 0 100 -71 100 -157 0 -223 248 -443 500 -443 252 0 500 220 500 443 0
86 45 157 100 157 55 0 100 135 100 300 0 165 45 300 100 300 55 0 100 90 100
200 0 110 45 200 100 200 55 0 100 135 100 300 0 165 45 300 100 300 55 0 100
90 100 200 0 110 45 200 100 200 55 0 100 135 100 300 0 165 45 300 100 300
55 0 100 90 100 200 0 110 45 200 100 200 55 0 100 90 100 200 0 110 45 200
100 200 55 0 100 135 100 300 0 165 45 300 100 300 55 0 100 90 100 200 0 110
45 200 100 200 55 0 100 135 100 300 0 165 45 300 100 300 55 0 100 90 100
200 0 110 45 200 100 200 55 0 100 135 100 300 0 165 45 300 100 300 55 0 100
90 100 200 0 110 45 200 100 200 55 0 100 135 100 300 0 165 45 300 100 300
55 0 100 90 100 200 0 110 45 200 100 200 55 0 100 135 100 300 0 165 45 300
100 300 55 0 100 90 100 200 0 110 45 200 100 200 55 0 100 -90 100 -200 0
-110 45 -200 100 -200 55 0 100 -90 100 -200 0 -110 45 -200 100 -200 55 0
100 -90 100 -200 0 -110 45 -200 100 -200 55 0 100 -135 100 -300 0 -165 45
-300 100 -300 55 0 100 -90 100 -200 0 -110 45 -200 100 -200 55 0 100 -90
100 -200 0 -110 45 -200 100 -200 55 0 100 -90 100 -200 0 -110 45 -200 100
-200 55 0 100 -90 100 -200 0 -110 45 -200 100 -200 55 0 100 -135 100 -300 0
-165 45 -300 100 -300 55 0 100 -90 100 -200 0 -110 45 -200 100 -200 55 0
100 -90 100 -200 0 -110 45 -200 100 -200 55 0 100 -90 100 -200 0 -110 45
-200 100 -200 55 0 100 -90 100 -200 0 -110 45 -200 100 -200 55 0 100 -90
100 -200 0 -110 45 -200 100 -200 55 0 100 -135 100 -300 0 -165 45 -300 100
-300 55 0 100 -90 100 -200 0 -110 45 -200 100 -200 55 0 100 -90 100 -200 0
-110 45 -200 100 -200 55 0 100 -90 100 -200 0 -110 45 -200 100 -200 55 0
100 -90 100 -200 0 -110 45 -200 100 -200 55 0 100 -116 100 -257 0 -313 212
-543 500 -543 252 0 500 220 500 443 0 86 45 157 100 157 55 0 100 90 100 200
0 110 45 200 100 200 55 0 100 135 100 300 0 165 45 300 100 300 55 0 100 90
100 200 0 110 45 200 100 200 55 0 100 135 100 300 0 165 45 300 100 300 55 0
100 90 100 200 0 110 45 200 100 200 55 0 100 135 100 300 0 165 45 300 100
300 55 0 100 90 100 200 0 110 45 200 100 200 55 0 100 135 100 300 0 165 45
300 100 300 55 0 100 90 100 200 0 110 45 200 100 200 55 0 100 90 100 200 0
110 45 200 100 200 55 0 100 135 100 300 0 165 45 300 100 300 55 0 100 90
100 200 0 110 45 200 100 200 55 0 100 135 100 300 0 165 45 300 100 300 55 0
100 90 100 200 0 110 45 200 100 200 55 0 100 135 100 300 0 165 45 300 100
300 55 0 100 90 100 200 0 110 45 200 100 200 55 0 100 135 100 300 0 165 45
300 100 300 55 0 100 90 100 200 0 110 45 200 100 200 55 0 100 135 100 300 0
165 45 300 100 300 55 0 100 90 100 200 0 110 45 200 100 200 55 0 100 135
100 300 0 165 45 300 100 300 55 0 100 90 100 200 0 110 45 200 100 200 55 0
100 135 100 300 0 165 45 300 100 300 55 0 100 90 100 200 0 110 45 200 100
200 55 0 100 90 100 200 0 110 45 200 100 200 55 0 100 135 100 300 0 165 45
300 100 300 55 0 100 90 100 200 0 110 45 200 100 200 55 0 100 135 100 300 0
165 45 300 100 300 55 0 100 90 100 200 0 110 45 200 100 200 55 0 100 135
100 300 0 165 45 300 100 300 55 0 100 90 100 200 0 110 45 200 100 200 55 0
100 135 100 300 0 165 45 300 100 300 55 0 100 90 100 200 0 110 45 200 100
200 55 0 100 135 100 300 0 165 45 300 100 300 55 0 100 80 100 178 0 98 90
243 200 322 110 79 200 204 200 277 0 182 456 623 645 623 85 0 155 45 155
100 0 55 135 100 300 100 165 0 300 45 300 100 0 55 206 100 457 100 557 0
845 213 607 450 -167 167 -864 207 -864 50 0 -64 -800 -100 -2200 -100 -1400
0 -2200 36 -2200 100 0 55 -180 100 -400 100 -378 0 -400 -17 -400 -300 l0
-300 800 0 c467 0 800 -42 800 -100 0 -55 116 -100 257 -100 290 0 543 -207
543 -443 0 -86 45 -157 100 -157 55 0 100 -90 100 -200 0 -110 -45 -200 -100
-200 -55 0 -100 -135 -100 -300 0 -165 -45 -300 -100 -300 -55 0 -100 -135
-100 -300 0 -165 -45 -300 -100 -300 -55 0 -100 -90 -100 -200 0 -110 -45
-200 -100 -200 -55 0 -100 -135 -100 -300 0 -165 -45 -300 -100 -300 -55 0
-100 -90 -100 -200 0 -110 -45 -200 -100 -200 -55 0 -100 -135 -100 -300 0
-165 -45 -300 -100 -300 -55 0 -100 -90 -100 -200 0 -110 -45 -200 -100 -200
-55 0 -100 -135 -100 -300 0 -165 -45 -300 -100 -300 -55 0 -100 -90 -100
-200 0 -110 -45 -200 -100 -200 -55 0 -100 -135 -100 -300 0 -165 -45 -300
-100 -300 -55 0 -100 -90 -100 -200 0 -110 -45 -200 -100 -200 -55 0 -100
-135 -100 -300 0 -165 -45 -300 -100 -300 -55 0 -100 -90 -100 -200 0 -110
-45 -200 -100 -200 -55 0 -100 -90 -100 -200 0 -110 -45 -200 -100 -200 -55 0
-100 -135 -100 -300 0 -165 -45 -300 -100 -300 -55 0 -100 -90 -100 -200 0
-110 -45 -200 -100 -200 -55 0 -100 -135 -100 -300 0 -165 -45 -300 -100 -300
-55 0 -100 -90 -100 -200 0 -110 -45 -200 -100 -200 -55 0 -100 -135 -100
-300 0 -165 -45 -300 -100 -300 -55 0 -100 -90 -100 -200 0 -110 -45 -200
-100 -200 -55 0 -100 -135 -100 -300 0 -165 -45 -300 -100 -300 -55 0 -100
-90 -100 -200 0 -110 -45 -200 -100 -200 -55 0 -100 -135 -100 -300 0 -165
-45 -300 -100 -300 -55 0 -100 -90 -100 -200 0 -110 -45 -200 -100 -200 -55 0
-100 -135 -100 -300 0 -165 -45 -300 -100 -300 -55 0 -100 -90 -100 -200 0
-110 -45 -200 -100 -200 -55 0 -100 -90 -100 -200 0 -110 -45 -200 -100 -200
-55 0 -100 -135 -100 -300 0 -165 -45 -300 -100 -300 -55 0 -100 -90 -100
-200 0 -110 -45 -200 -100 -200 -55 0 -100 -135 -100 -300 0 -165 -45 -300
-100 -300 -55 0 -100 -90 -100 -200 0 -110 -45 -200 -100 -200 -55 0 -100 90
-100 200 0 110 -45 200 -100 200 -55 0 -100 90 -100 200 0 110 -45 200 -100
200 -55 0 -100 90 -100 200 0 110 -45 200 -100 200 -55 0 -100 90 -100 200 0
110 -45 200 -100 200 -55 0 -100 135 -100 300 0 165 -45 300 -100 300 -55 0
-100 90 -100 200 0 110 -45 200 -100 200 -55 0 -100 90 -100 200 0 110 -45
200 -100 200 -55 0 -100 90 -100 200 0 110 -45 200 -100 200 -55 0 -100 90
-100 200 0 110 -45 200 -100 200 -55 0 -100 90 -100 200 0 110 -45 200 -100
200 -55 0 -100 135 -100 300 0 165 -45 300 -100 300 -55 0 -100 90 -100 200 0
110 -45 200 -100 200 -55 0 -100 90 -100 200 0 110 -45 200 -100 200 -55 0
-100 90 -100 200 0 110 -45 200 -100 200 -55 0 -100 90 -100 200 0 110 -45
200 -100 200 -55 0 -100 90 -100 200 0 110 -45 200 -100 200 -55 0 -100 135
-100 300 0 165 -45 300 -100 300 -55 0 -100 90 -100 200 0 110 -45 200 -100
200 -55 0 -100 90 -100 200 0 110 -45 200 -100 200 -55 0 -100 180 -100 400 0
220 45 400 100 400 55 0 100 135 100 300 0 165 45 300 100 300 55 0 100 90
100 200 0 110 45 200 100 200 55 0 100 135 100 300 0 165 45 300 100 300 55 0
100 90 100 200 0 110 45 200 100 200 55 0 100 135 100 300 0 165 45 300 100
300 55 0 100 90 100 200 0 110 45 200 100 200 55 0 100 135 100 300 0 165 45
300 100 300 55 0 100 90 100 200 0 110 45 200 100 200 55 0 100 135 100 300 0
165 45 300 100 300 55 0 100 90 100 200 0 110 45 200 100 200 55 0 100 135
100 300 0 165 45 300 100 300 55 0 100 90 100 200 0 110 45 200 100 200 55 0
100 68 100 152 0 262 1065 1248 1348 1248 139 0 252 45 252 100 0 56 267 100
600 100 634 0 774 140 457 457 -161 162 -857 196 -857 43 0 -63 -633 -100
-1700 -100 -1067 0 -1700 37 -1700 100 0 55 -135 100 -300 100 -267 0 -300
-33 -300 -300 0 -293 11 -300 500 -300 275 0 500 -45 500 -100 0 -55 90 -100
200 -100 181 0 200 -67 200 -700 0 -400 -43 -700 -100 -700 -55 0 -100 -135
-100 -300 0 -165 -45 -300 -100 -300 -55 0 -100 -90 -100 -200 0 -110 -45
-200 -100 -200 -55 0 -100 -135 -100 -300 0 -165 -45 -300 -100 -300 -55 0
-100 -90 -100 -200 0 -110 -45 -200 -100 -200 -55 0 -100 -135 -100 -300 0
-165 -45 -300 -100 -300 -55 0 -100 -90 -100 -200 0 -110 -45 -200 -100 -200
-55 0 -100 -135 -100 -300 0 -165 -45 -300 -100 -300 -55 0 -100 -90 -100
-200 0 -110 -45 -200 -100 -200 -55 0 -100 -90 -100 -200 0 -110 -45 -200
-100 -200 -55 0 -100 -135 -100 -300 0 -165 -45 -300 -100 -300 -55 0 -100
-90 -100 -200 0 -110 -45 -200 -100 -200 -55 0 -100 90 -100 200 0 110 -45
200 -100 200 -55 0 -100 90 -100 200 0 110 -45 200 -100 200 -55 0 -100 90
-100 200 0 110 -45 200 -100 200 -55 0 -100 90 -100 200 0 110 -45 200 -100
200 -55 0 -100 90 -100 200 0 110 -45 200 -100 200 -55 0 -100 90 -100 200 0
110 -45 200 -100 200 -55 0 -100 90 -100 200 0 110 -45 200 -100 200 -55 0
-100 135 -100 300 0 165 -45 300 -100 300 -55 0 -100 90 -100 200 0 110 -45
200 -100 200 -55 0 -100 90 -100 200 0 110 -45 200 -100 200 -55 0 -100 90
-100 200 0 110 -45 200 -100 200 -55 0 -100 90 -100 200 0 110 -45 200 -100
200 -55 0 -100 90 -100 200 0 110 -45 200 -100 200 -55 0 -100 135 -100 300 0
165 -45 300 -100 300 -55 0 -100 225 -100 500 l0 500 457 0 c557 0 845 213
607 450 -168 168 -664 205 -664 50 0 -63 -667 -100 -1800 -100 -1133 0 -1800
37 -1800 100 0 55 -90 100 -200 100 -183 0 -200 67 -200 800 0 467 -42 800
-100 800 -55 0 -100 180 -100 400 0 220 -45 400 -100 400 -55 0 -100 135 -100
300 0 165 -45 300 -100 300 -55 0 -100 90 -100 200 0 110 -45 200 -100 200
-55 0 -100 90 -100 200 0 110 -45 200 -100 200 -55 0 -100 90 -100 200 0 110
-45 200 -100 200 -55 0 -100 80 -100 178 0 98 -90 243 -200 322 -110 79 -200
205 -200 280 0 75 -180 309 -400 520 -220 211 -400 436 -400 499 0 148 -252
401 -399 401 -63 0 -333 225 -601 500 -268 275 -557 500 -644 500 -86 0 -156
45 -156 100 0 55 -80 100 -178 100 -98 0 -243 90 -322 200 -79 110 -224 200
-322 200 -98 0 -178 45 -178 100 0 55 -90 100 -200 100 -110 0 -200 45 -200
100 0 55 -90 100 -200 100 -110 0 -200 45 -200 100 0 55 -135 100 -300 100
-165 0 -300 45 -300 100 0 55 -135 100 -300 100 -165 0 -300 45 -300 100 0 55
-135 100 -300 100 -165 0 -300 45 -300 100 0 55 -225 100 -500 100 -275 0
-500 45 -500 100 0 58 -333 100 -800 100 -467 0 -800 42 -800 100 0 62 -500
100 -1300 100 -800 0 -1300 -38 -1300 -100z m3400 -600 c0 -55 225 -100 500
-100 275 0 500 -45 500 -100 0 -55 135 -100 300 -100 165 0 300 -45 300 -100
0 -55 90 -100 200 -100 110 0 200 -45 200 -100 0 -55 90 -100 200 -100 110 0
200 -45 200 -100 0 -55 90 -100 200 -100 110 0 200 -45 200 -100 0 -55 80
-100 178 -100 98 0 243 -90 322 -200 79 -110 202 -200 273 -200 169 0 2027
-1858 2027 -2027 0 -71 90 -194 200 -273 110 -79 200 -224 200 -322 0 -98 45
-178 100 -178 55 0 100 -90 100 -200 0 -110 45 -200 100 -200 55 0 100 -90
100 -200 0 -110 45 -200 100 -200 55 0 100 -135 100 -300 0 -165 45 -300 100
-300 55 0 100 -90 100 -200 0 -110 45 -200 100 -200 55 0 100 -180 100 -400 0
-220 45 -400 100 -400 55 0 100 -180 100 -400 0 -220 45 -400 100 -400 64 0
100 -833 100 -2300 0 -1467 -36 -2300 -100 -2300 -55 0 -100 -180 -100 -400 0
-220 -45 -400 -100 -400 -55 0 -100 -135 -100 -300 0 -165 -45 -300 -100 -300
-55 0 -100 -135 -100 -300 0 -165 -26 -300 -57 -300 -117 0 -343 291 -343 443
0 86 -45 157 -100 157 -55 0 -100 90 -100 200 0 110 -45 200 -100 200 -55 0
-100 90 -100 200 0 110 -45 200 -100 200 -55 0 -100 135 -100 300 0 165 -45
300 -100 300 -55 0 -100 90 -100 200 0 110 -45 200 -100 200 -55 0 -100 90
-100 200 0 110 -45 200 -100 200 -55 0 -100 90 -100 200 0 110 -45 200 -100
200 -55 0 -100 251 -100 557 0 574 142 843 443 843 86 0 157 45 157 100 0 57
300 100 700 100 737 0 889 125 557 457 -161 162 -857 196 -857 43 0 -64 -800
-100 -2200 -100 -1400 0 -2200 36 -2200 100 0 153 -696 119 -857 -43 -299
-299 -175 -457 357 -457 275 0 500 -45 500 -100 0 -55 90 -100 200 -100 110 0
200 -45 200 -100 0 -55 70 -100 155 -100 200 0 645 -445 645 -645 0 -85 45
-155 100 -155 55 0 100 -90 100 -200 0 -110 45 -200 100 -200 55 0 100 -90
100 -200 0 -110 45 -200 100 -200 55 0 100 -90 100 -200 0 -110 45 -200 100
-200 55 0 100 -90 100 -200 0 -110 45 -200 100 -200 55 0 100 -90 100 -200 0
-110 45 -200 100 -200 55 0 100 -90 100 -200 0 -110 45 -200 100 -200 55 0
100 -135 100 -300 0 -165 45 -300 100 -300 55 0 100 -90 100 -200 0 -110 45
-200 100 -200 55 0 100 -90 100 -200 0 -110 45 -200 100 -200 55 0 100 -90
100 -200 0 -110 45 -200 100 -200 55 0 100 -90 100 -200 0 -110 45 -200 100
-200 55 0 100 -90 100 -200 0 -110 45 -200 100 -200 55 0 100 -158 100 -352 0
-299 -96 -448 -648 -1000 -357 -356 -707 -648 -778 -648 -71 0 -195 -90 -274
-200 -79 -110 -224 -200 -322 -200 -98 0 -178 -45 -178 -100 0 -55 -90 -100
-200 -100 -110 0 -200 -45 -200 -100 0 -55 -90 -100 -200 -100 -110 0 -200
-45 -200 -100 0 -55 -90 -100 -200 -100 -110 0 -200 -45 -200 -100 0 -55 -180
-100 -400 -100 -220 0 -400 -45 -400 -100 0 -55 -180 -100 -400 -100 -220 0
-400 -45 -400 -100 0 -60 -400 -100 -1000 -100 -600 0 -1000 -40 -1000 -100 0
-55 -90 -100 -200 -100 -110 0 -200 45 -200 100 0 59 -367 100 -900 100 -533
0 -900 41 -900 100 0 55 -90 100 -200 100 -110 0 -200 45 -200 100 0 55 -70
100 -155 100 -243 0 -645 465 -645 745 0 140 -45 255 -100 255 -66 0 -100
2867 -100 8400 0 5533 34 8400 100 8400 55 0 100 69 100 153 0 308 667 847
1047 847 194 0 353 45 353 100 0 63 667 100 1800 100 1133 0 1800 -37 1800
-100z m10200 -9600 c0 -55 69 -100 153 -100 187 0 847 -642 847 -825 0 -72 90
-196 200 -275 110 -79 200 -224 200 -322 0 -98 45 -178 100 -178 55 0 100 -90
100 -200 0 -110 45 -200 100 -200 55 0 100 -135 100 -300 0 -165 45 -300 100
-300 55 0 100 -90 100 -200 0 -110 45 -200 100 -200 55 0 100 -90 100 -200 0
-110 45 -200 100 -200 55 0 100 -90 100 -200 0 -110 45 -200 100 -200 55 0
100 -90 100 -200 0 -110 45 -200 100 -200 55 0 100 -135 100 -300 0 -165 45
-300 100 -300 55 0 100 -90 100 -200 0 -110 45 -200 100 -200 55 0 100 -90
100 -200 0 -110 45 -200 100 -200 55 0 100 -90 100 -200 0 -110 45 -200 100
-200 55 0 100 -90 100 -200 0 -110 45 -200 100 -200 55 0 100 -135 100 -300 0
-165 45 -300 100 -300 55 0 100 -90 100 -200 0 -110 45 -200 100 -200 55 0
100 -90 100 -200 0 -110 45 -200 100 -200 55 0 100 -90 100 -200 0 -110 45
-200 100 -200 55 0 100 -90 100 -200 0 -110 45 -200 100 -200 55 0 100 -225
100 -500 0 -275 -45 -500 -100 -500 -55 0 -100 -90 -100 -200 0 -110 -45 -200
-100 -200 -55 0 -100 -90 -100 -200 0 -110 -45 -200 -100 -200 -55 0 -100
-135 -100 -300 0 -165 -45 -300 -100 -300 -55 0 -100 -90 -100 -200 0 -110
-45 -200 -100 -200 -55 0 -100 -135 -100 -300 0 -165 -45 -300 -100 -300 -55
0 -100 -90 -100 -200 0 -110 -45 -200 -100 -200 -55 0 -100 -135 -100 -300 0
-165 -45 -300 -100 -300 -55 0 -100 -90 -100 -200 0 -110 -45 -200 -100 -200
-55 0 -100 -135 -100 -300 0 -165 -45 -300 -100 -300 -55 0 -100 -90 -100
-200 0 -110 -45 -200 -100 -200 -55 0 -100 -135 -100 -300 0 -165 -45 -300
-100 -300 -55 0 -100 -90 -100 -200 0 -110 -45 -200 -100 -200 -55 0 -100
-135 -100 -300 0 -165 -45 -300 -100 -300 -55 0 -100 -90 -100 -200 0 -110
-45 -200 -100 -200 -55 0 -100 90 -100 200 0 110 -45 200 -100 200 -55 0 -100
90 -100 200 0 110 -45 200 -100 200 -55 0 -100 90 -100 200 0 110 -45 200
-100 200 -55 0 -100 90 -100 200 0 110 -45 200 -100 200 -55 0 -100 90 -100
200 0 110 -45 200 -100 200 -55 0 -100 90 -100 200 0 110 -45 200 -100 200
-55 0 -100 135 -100 300 0 165 -45 300 -100 300 -55 0 -100 90 -100 200 0 110
-45 200 -100 200 -55 0 -100 90 -100 200 0 110 -45 200 -100 200 -55 0 -100
90 -100 200 0 110 -45 200 -100 200 -55 0 -100 90 -100 200 0 110 -45 200
-100 200 -55 0 -100 90 -100 200 0 110 -45 200 -100 200 -55 0 -100 135 -100
300 0 165 -45 300 -100 300 -55 0 -100 90 -100 200 0 110 -45 200 -100 200
-55 0 -100 90 -100 200 0 110 -45 200 -100 200 -55 0 -100 90 -100 200 0 110
-45 200 -100 200 -55 0 -100 90 -100 200 0 110 -45 200 -100 200 -55 0 -100
90 -100 200 0 110 -45 200 -100 200 -55 0 -100 135 -100 300 0 165 -45 300
-100 300 -55 0 -100 90 -100 200 0 110 -45 200 -100 200 -55 0 -100 90 -100
200 0 110 -45 200 -100 200 -55 0 -100 90 -100 200 0 110 -45 200 -100 200
-55 0 -100 90 -100 200 0 110 -45 200 -100 200 -222 0 -90 529 200 800 165
154 300 342 300 418 0 76 90 203 200 282 110 79 200 224 200 322 0 98 45 178
100 178 55 0 100 90 100 200 0 110 45 200 100 200 55 0 100 135 100 300 0 165
45 300 100 300 55 0 100 90 100 200 0 110 45 200 100 200 55 0 100 135 100
300 0 165 45 300 100 300 55 0 100 225 100 500 0 275 45 500 100 500 59 0 100
367 100 900 l0 900 300 0 c165 0 300 -45 300 -100z"/>
</g></svg></svg>