<svg version="1.0" xmlns="http://www.w3.org/2000/svg"
 viewBox="0 0 640.000000 432.000000"
 preserveAspectRatio="xMidYMid meet" aria-hidden="true">
<g transform="translate(0.000000,432.000000) scale(0.010000,-0.010000)"
fill="currentColor" stroke="none">
<path d="M20200 41500 c0 -65 -1167 -100 -3300 -100 -3233 0 -3300 -4 -3300
-200 0 -183 67 -200 800 -200 467 0 800 -42 800 -100 0 -55 160 -100 355 -100
243 0 431 -77 600 -245 168 -169 245 -357 245 -600 0 -195 45 -355 100 -355
66 0 100 -2833 100 -8300 0 -5467 -34 -8300 -100 -8300 -55 0 -100 -135 -100
-300 0 -165 -45 -300 -100 -300 -55 0 -100 -90 -100 -200 0 -133 -67 -200
-200 -200 -110 0 -200 -45 -200 -100 0 -55 -90 -100 -200 -100 -110 0 -200
-45 -200 -100 0 -59 -367 -100 -900 -100 -833 0 -900 -15 -900 -200 0 -196 67
-200 3100 -200 2000 0 3100 -35 3100 -100 0 -63 733 -100 2000 -100 1267 0
2000 37 2000 100 0 55 225 100 500 100 275 0 500 45 500 100 0 55 180 100 400
100 220 0 400 45 400 100 0 55 135 100 300 100 165 0 300 45 300 100 0 55 135
100 300 100 165 0 300 45 300 100 0 55 90 100 200 100 110 0 200 45 200 100 0
55 90 100 200 100 110 0 200 45 200 100 0 55 90 100 200 100 110 0 200 45 200
100 0 55 80 100 178 100 98 0 243 90 322 200 79 110 214 200 300 200 86 0 221
90 300 200 198 275 700 275 700 0 0 -110 45 -200 100 -200 55 0 100 -135 100
-300 0 -165 45 -300 100 -300 55 0 100 -90 100 -200 0 -110 45 -200 100 -200
55 0 100 -90 100 -200 0 -110 45 -200 100 -200 55 0 100 -90 100 -200 0 -110
45 -200 100 -200 55 0 100 -90 100 -200 0 -110 45 -200 100 -200 55 0 100 -90
100 -200 0 -110 45 -200 100 -200 55 0 100 -135 100 -300 0 -165 45 -300 100
-300 55 0 100 -90 100 -200 0 -110 45 -200 100 -200 55 0 100 -90 100 -200 0
-110 45 -200 100 -200 55 0 100 -90 100 -200 0 -110 45 -200 100 -200 55 0
100 -90 100 -200 0 -110 45 -200 100 -200 55 0 100 -135 100 -300 0 -165 45
-300 100 -300 55 0 100 -90 100 -200 0 -110 45 -200 100 -200 55 0 100 -90
100 -200 0 -110 45 -200 100 -200 55 0 100 -90 100 -200 0 -110 45 -200 100
-200 55 0 100 -90 100 -200 0 -110 45 -200 100 -200 55 0 100 -135 100 -300 0
-165 45 -300 100 -300 55 0 100 -90 100 -200 0 -110 45 -200 100 -200 55 0
100 -90 100 -200 0 -110 45 -200 100 -200 55 0 100 -90 100 -200 0 -110 45
-200 100 -200 55 0 100 -90 100 -200 0 -110 45 -200 100 -200 55 0 100 -90
100 -200 0 -110 45 -200 100 -200 55 0 100 -135 100 -300 0 -165 45 -300 100
-300 55 0 100 -71 100 -157 0 -223 248 -443 500 -443 252 0 500 220 500 443 0
86 45 157 100 157 55 0 100 135 100 300 0 165 45 300 100 300 55 0 100 90 100
200 0 110 45 200 100 200 55 0 100 135 100 300 0 165 45 300 100 300 55 0 100
90 100 200 0 110 45 200 100 200 55 0 100 135 100 300 0 165 45 300 100 300
55 0 100 90 100 200 0 110 45 200 100 200 55 0 100 90 100 200 0 110 45 200
100 200 55 0 100 135 100 300 0 165 45 300 100 300 55 0 100 90 100 200 0 110
45 200 100 200 55 0 100 135 100 300 0 165 45 300 100 300 55 0 100 90 100
200 0 110 45 200 100 200 55 0 100 135 100 300 0 165 45 300 100 300 55 0 100
90 100 200 0 110 45 200 100 200 55 0 100 135 100 300 0 165 45 300 100 300
55 0 100 90 100 200 0 110 45 200 100 200 55 0 100 135 100 300 0 165 45 300
100 300 55 0 100 90 100 200 0 110 45 200 100 200 55 0 100 -90 100 -200 0
-110 45 -200 100 -200 55 0 100 -90 100 -200 0 -110 45 -200 100 -200 55 0
100 -90 100 -200 0 -110 45 -200 100 -200 55 0 100 -135 100 -300 0 -165 45
-300 100 -300 55 0 100 -90 100 -200 0 -110 45 -200 100 -200 55 0 100 -90
100 -200 0 -110 45 -200 100 -200 55 0 100 -90 100 -200 0 -110 45 -200 100
-200 55 0 100 -90 100 -200 0 -110 45 -200 100 -200 55 0 100 -135 100 -300 0
-165 45 -300 100 -300 55 0 100 -90 100 -200 0 -110 45 -200 100 -200 55 0
100 -90 100 -200 0 -110 45 -200 100 -200 55 0 100 -90 100 -200 0 -110 45
-200 100 -200 55 0 100 -90 100 -200 0 -110 45 -200 100 -200 55 0 100 -90
100 -200 0 -110 45 -200 100 -200 55 0 100 -135 100 -300 0 -165 45 -300 100
-300 55 0 100 -90 100 -200 0 -110 45 -200 100 -200 55 0 100 -90 100 -200 0
-110 45 -200 100 -200 55 0 100 -90 100 -200 0 -110 45 -200 100 -200 55 0
100 -90 100 -200 0 -110 45 -200 100 -200 55 0 100 -116 100 -257 0 -313 212
-543 500 -543 252 0 500 220 500 443 0 86 45 157 100 157 55 0 100 90 100 200
0 110 45 200 100 200 55 0 100 135 100 300 0 165 45 300 100 300 55 0 100 90
100 200 0 110 45 200 100 200 55 0 100 135 100 300 0 165 45 300 100 300 55 0
100 90 100 200 0 110 45 200 100 200 55 0 100 135 100 300 0 165 45 300 100
300 55 0 100 90 100 200 0 110 45 200 100 200 55 0 100 135 100 300 0 165 45
300 100 300 55 0 100 90 100 200 0 110 45 200 100 200 55 0 100 90 100 200 0
110 45 200 100 200 55 0 100 135 100 300 0 165 45 300 100 300 55 0 100 90
100 200 0 110 45 200 100 200 55 0 100 135 100 300 0 165 45 300 100 300 55 0
100 90 100 200 0 110 45 200 100 200 55 0 100 135 100 300 0 165 45 300 100
300 55 0 100 90 100 200 0 110 45 200 100 200 55 0 100 135 100 300 0 165 45
300 100 300 55 0 100 90 100 200 0 110 45 200 100 200 55 0 100 135 100 300 0
165 45 300 100 300 55 0 100 90 100 200 0 110 45 200 100 200 55 0 100 135
100 300 0 165 45 300 100 300 55 0 100 90 100 200 0 110 45 200 100 200 55 0
100 135 100 300 0 165 45 300 100 300 55 0 100 90 100 200 0 110 45 200 100
200 55 0 100 90 100 200 0 110 45 200 100 200 55 0 100 135 100 300 0 165 45
300 100 300 55 0 100 90 100 200 0 110 45 200 100 200 55 0 100 135 100 300 0
165 45 300 100 300 55 0 100 90 100 200 0 110 45 200 100 200 55 0 100 135
100 300 0 165 45 300 100 300 55 0 100 90 100 200 0 110 45 200 100 200 55 0
100 135 100 300 0 165 45 300 100 300 55 0 100 90 100 200 0 110 45 200 100
200 55 0 100 135 100 300 0 165 45 300 100 300 55 0 100 80 100 178 0 98 90
243 200 322 110 79 200 204 200 277 0 182 456 623 645 623 85 0 155 45 155
100 0 55 135 100 300 100 165 0 300 45 300 100 0 55 206 100 457 100 557 0
845 213 607 450 -167 167 -864 207 -864 50 0 -64 -800 -100 -2200 -100 -1400
0 -2200 36 -2200 100 0 55 -180 100 -400 100 -378 0 -400 -17 -400 -300 l0
-300 800 0 c467 0 800 -42 800 -100 0 -55 116 -100 257 -100 290 0 543 -207
543 -443 0 -86 45 -157 100 -157 55 0 100 -90 100 -200 0 -110 -45 -200 -100
-200 -55 0 -100 -135 -100 -300 0 -165 -45 -300 -100 -300 -55 0 -100 -135
-100 -300 0 -165 -45 -300 -100 -300 -55 0 -100 -90 -100 -200 0 -110 -45
-200 -100 -200 -55 0 -100 -135 -100 -300 0 -165 -45 -300 -100 -300 -55 0
-100 -90 -100 -200 0 -110 -45 -200 -100 -200 -55 0 -100 -135 -100 -300 0
-165 -45 -300 -100 -300 -55 0 -100 -90 -100 -200 0 -110 -45 -200 -100 -200
-55 0 -100 -135 -100 -300 0 -165 -45 -300 -100 -300 -55 0 -100 -90 -100
-200 0 -110 -45 -200 -100 -200 -55 0 -100 -135 -100 -300 0 -165 -45 -300
-100 -300 -55 0 -100 -90 -100 -200 0 -110 -45 -200 -100 -200 -55 0 -100
-135 -100 -300 0 -165 -45 -300 -100 -300 -55 0 -100 -90 -100 -200 0 -110
-45 -200 -100 -200 -55 0 -100 -90 -100 -200 0 -110 -45 -200 -100 -200 -55 0
-100 -135 -100 -300 0 -165 -45 -300 -100 -300 -55 0 -100 -90 -100 -200 0
-110 -45 -200 -100 -200 -55 0 -100 -135 -100 -300 0 -165 -45 -300 -100 -300
-55 0 -100 -90 -100 -200 0 -110 -45 -200 -100 -200 -55 0 -100 -135 -100
-300 0 -165 -45 -300 -100 -300 -55 0 -100 -90 -100 -200 0 -110 -45 -200
-100 -200 -55 0 -100 -135 -100 -300 0 -165 -45 -300 -100 -300 -55 0 -100
-90 -100 -200 0 -110 -45 -200 -100 -200 -55 0 -100 -135 -100 -300 0 -165
-45 -300 -100 -300 -55 0 -100 -90 -100 -200 0 -110 -45 -200 -100 -200 -55 0
-100 -135 -100 -300 0 -165 -45 -300 -100 -300 -55 0 -100 -90 -100 -200 0
-110 -45 -200 -100 -200 -55 0 -100 -90 -100 -200 0 -110 -45 -200 -100 -200
-55 0 -100 -135 -100 -300 0 -165 -45 -300 -100 -300 -55 0 -100 -90 -100
-200 0 -110 -45 -200 -100 -200 -55 0 -100 -135 -100 -300 0 -165 -45 -300
-100 -300 -55 0 -100 -90 -100 -200 0 -110 -45 -200 -100 -200 -55 0 -100 90
-100 200 0 110 -45 200 -100 200 -55 0 -100 90 -100 200 0 110 -45 200 -100
200 -55 0 -100 90 -100 200 0 110 -45 200 -100 200 -55 0 -100 90 -100 200 0
110 -45 200 -100 200 -55 0 -100 135 -100 300 0 165 -45 300 -100 300 -55 0
-100 90 -100 200 0 110 -45 200 -100 200 -55 0 -100 90 -100 200 0 110 -45
200 -100 200 -55 0 -100 90 -100 200 0 110 -45 200 -100 200 -55 0 -100 90
-100 200 0 110 -45 200 -100 200 -55 0 -100 90 -100 200 0 110 -45 200 -100
200 -55 0 -100 135 -100 300 0 165 -45 300 -100 300 -55 0 -100 90 -100 200 0
110 -45 200 -100 200 -55 0 -100 90 -100 200 0 110 -45 200 -100 200 -55 0
-100 90 -100 200 0 110 -45 200 -100 200 -55 0 -100 90 -100 200 0 110 -45
200 -100 200 -55 0 -100 90 -100 200 0 110 -45 200 -100 200 -55 0 -100 135
-100 300 0 165 -45 300 -100 300 -55 0 -100 90 -100 200 0 110 -45 200 -100
200 -55 0 -100 90 -100 200 0 110 -45 200 -100 200 -55 0 -100 180 -100 400 0
220 45 400 100 400 55 0 100 135 100 300 0 165 45 300 100 300 55 0 100 90
100 200 0 110 45 200 100 200 55 0 100 135 100 300 0 165 45 300 100 300 55 0
100 90 100 200 0 110 45 200 100 200 55 0 100 135 100 300 0 165 45 300 100
300 55 0 100 90 100 200 0 110 45 200 100 200 55 0 100 135 100 300 0 165 45
300 100 300 55 0 100 90 100 200 0 110 45 200 100 200 55 0 100 135 100 300 0
165 45 300 100 300 55 0 100 90 100 200 0 110 45 200 100 200 55 0 100 135
100 300 0 165 45 300 100 300 55 0 100 90 100 200 0 110 45 200 100 200 55 0
100 68 100 152 0 262 1065 1248 1348 1248 139 0 252 45 252 100 0 56 267 100
600 100 634 0 774 140 457 457 -161 162 -857 196 -857 43 0 -63 -633 -100
-1700 -100 -1067 0 -1700 37 -1700 100 0 55 -135 100 -300 100 -267 0 -300
-33 -300 -300 0 -293 11 -300 500 -300 275 0 500 -45 500 -100 0 -55 90 -100
200 -100 181 0 200 -67 200 -700 0 -400 -43 -700 -100 -700 -55 0 -100 -135
-100 -300 0 -165 -45 -300 -100 -300 -55 0 -100 -90 -100 -200 0 -110 -45
-200 -100 -200 -55 0 -100 -135 -100 -300 0 -165 -45 -300 -100 -300 -55 0
-100 -90 -100 -200 0 -110 -45 -200 -100 -200 -55 0 -100 -135 -100 -300 0
-165 -45 -300 -100 -300 -55 0 -100 -90 -100 -200 0 -110 -45 -200 -100 -200
-55 0 -100 -135 -100 -300 0 -165 -45 -300 -100 -300 -55 0 -100 -90 -100
-200 0 -110 -45 -200 -100 -200 -55 0 -100 -90 -100 -200 0 -110 -45 -200
-100 -200 -55 0 -100 -135 -100 -300 0 -165 -45 -300 -100 -300 -55 0 -100
-90 -100 -200 0 -110 -45 -200 -100 -200 -55 0 -100 90 -100 200 0 110 -45
200 -100 200 -55 0 -100 90 -100 200 0 110 -45 200 -100 200 -55 0 -100 90
-100 200 0 110 -45 200 -100 200 -55 0 -100 90 -100 200 0 110 -45 200 -100
200 -55 0 -100 90 -100 200 0 110 -45 200 -100 200 -55 0 -100 90 -100 200 0
110 -45 200 -100 200 -55 0 -100 90 -100 200 0 110 -45 200 -100 200 -55 0
-100 135 -100 300 0 165 -45 300 -100 300 -55 0 -100 90 -100 200 0 110 -45
200 -100 200 -55 0 -100 90 -100 200 0 110 -45 200 -100 200 -55 0 -100 90
-100 200 0 110 -45 200 -100 200 -55 0 -100 90 -100 200 0 110 -45 200 -100
200 -55 0 -100 90 -100 200 0 110 -45 200 -100 200 -55 0 -100 135 -100 300 0
165 -45 300 -100 300 -55 0 -100 225 -100 500 l0 500 457 0 c557 0 845 213
607 450 -168 168 -664 205 -664 50 0 -63 -667 -100 -1800 -100 -1133 0 -1800
37 -1800 100 0 55 -90 100 -200 100 -183 0 -200 67 -200 800 0 467 -42 800
-100 800 -55 0 -100 180 -100 400 0 220 -45 400 -100 400 -55 0 -100 135 -100
300 0 165 -45 300 -100 300 -55 0 -100 90 -100 200 0 110 -45 200 -100 200
-55 0 -100 90 -100 200 0 110 -45 200 -100 200 -55 0 -100 90 -100 200 0 110
-45 200 -100 200 -55 0 -100 80 -100 178 0 98 -90 243 -200 322 -110 79 -200
205 -200 280 0 75 -180 309 -400 520 -220 211 -400 436 -400 499 0 148 -252
401 -399 401 -63 0 -333 225 -601 500 -268 275 -557 500 -644 500 -86 0 -156
45 -156 100 0 55 -80 100 -178 100 -98 0 -243 90 -322 200 -79 110 -224 200
-322 200 -98 0 -178 45 -178 100 0 55 -90 100 -200 100 -110 0 -200 45 -200
100 0 55 -90 100 -200 100 -110 0 -200 45 -200 100 0 55 -135 100 -300 100
-165 0 -300 45 -300 100 0 55 -135 100 -300 100 -165 0 -300 45 -300 100 0 55
-135 100 -300 100 -165 0 -300 45 -300 100 0 55 -225 100 -500 100 -275 0
-500 45 -500 100 0 58 -333 100 -800 100 -467 0 -800 42 -800 100 0 62 -500
100 -1300 100 -800 0 -1300 -38 -1300 -100z m3400 -600 c0 -55 225 -100 500
-100 275 0 500 -45 500 -100 0 -55 135 -100 300 -100 165 0 300 -45 300 -100
0 -55 90 -100 200 -100 110 0 200 -45 200 -100 0 -55 90 -100 200 -100 110 0
200 -45 200 -100 0 -55 90 -100 200 -100 110 0 200 -45 200 -100 0 -55 80
-100 178 -100 98 0 243 -90 322 -200 79 -110 202 -200 273 -200 169 0 2027
-1858 2027 -2027 0 -71 90 -194 200 -273 110 -79 200 -224 200 -322 0 -98 45
-178 100 -178 55 0 100 -90 100 -200 0 -110 45 -200 100 -200 55 0 100 -90
100 -200 0 -110 45 -200 100 -200 55 0 100 -135 100 -300 0 -165 45 -300 100
-300 55 0 100 -90 100 -200 0 -110 45 -200 100 -200 55 0 100 -180 100 -400 0
-220 45 -400 100 -400 55 0 100 -180 100 -400 0 -220 45 -400 100 -400 64 0
100 -833 100 -2300 0 -1467 -36 -2300 -100 -2300 -55 0 -100 -180 -100 -400 0
-220 -45 -400 -100 -400 -55 0 -100 -135 -100 -300 0 -165 -45 -300 -100 -300
-55 0 -100 -135 -100 -300 0 -165 -26 -300 -57 -300 -117 0 -343 291 -343 443
0 86 -45 157 -100 157 -55 0 -100 90 -100 200 0 110 -45 200 -100 200 -55 0
-100 90 -100 200 0 110 -45 200 -100 200 -55 0 -100 135 -100 300 0 165 -45
300 -100 300 -55 0 -100 90 -100 200 0 110 -45 200 -100 200 -55 0 -100 90
-100 200 0 110 -45 200 -100 200 -55 0 -100 90 -100 200 0 110 -45 200 -100
200 -55 0 -100 251 -100 557 0 574 142 843 443 843 86 0 157 45 157 100 0 57
300 100 700 100 737 0 889 125 557 457 -161 162 -857 196 -857 43 0 -64 -800
-100 -2200 -100 -1400 0 -2200 36 -2200 100 0 153 -696 119 -857 -43 -299
-299 -175 -457 357 -457 275 0 500 -45 500 -100 0 -55 90 -100 200 -100 110 0
200 -45 200 -100 0 -55 70 -100 155 -100 200 0 645 -445 645 -645 0 -85 45
-155 100 -155 55 0 100 -90 100 -200 0 -110 45 -200 100 -200 55 0 100 -90
100 -200 0 -110 45 -200 100 -200 55 0 100 -90 100 -200 0 -110 45 -200 100
-200 55 0 100 -90 100 -200 0 -110 45 -200 100 -200 55 0 100 -90 100 -200 0
-110 45 -200 100 -200 55 0 100 -90 100 -200 0 -110 45 -200 100 -200 55 0
100 -135 100 -300 0 -165 45 -300 100 -300 55 0 100 -90 100 -200 0 -110 45
-200 100 -200 55 0 100 -90 100 -200 0 -110 45 -200 100 -200 55 0 100 -90
100 -200 0 -110 45 -200 100 -200 55 0 100 -90 100 -200 0 -110 45 -200 100
-200 55 0 100 -90 100 -200 0 -110 45 -200 100 -200 55 0 100 -158 100 -352 0
-299 -96 -448 -648 -1000 -357 -356 -707 -648 -778 -648 -71 0 -195 -90 -274
-200 -79 -110 -224 -200 -322 -200 -98 0 -178 -45 -178 -100 0 -55 -90 -100
-200 -100 -110 0 -200 -45 -200 -100 0 -55 -90 -100 -200 -100 -110 0 -200
-45 -200 -100 0 -55 -90 -100 -200 -100 -110 0 -200 -45 -200 -100 0 -55 -180
-100 -400 -100 -220 0 -400 -45 -400 -100 0 -55 -180 -100 -400 -100 -220 0
-400 -45 -400 -100 0 -60 -400 -100 -1000 -100 -600 0 -1000 -40 -1000 -100 0
-55 -90 -100 -200 -100 -110 0 -200 45 -200 100 0 59 -367 100 -900 100 -533
0 -900 41 -900 100 0 55 -90 100 -200 100 -110 0 -200 45 -200 100 0 55 -70
100 -155 100 -243 0 -645 465 -645 745 0 140 -45 255 -100 255 -66 0 -100
2867 -100 8400 0 5533 34 8400 100 8400 55 0 100 69 100 153 0 308 667 847
1047 847 194 0 353 45 353 100 0 63 667 100 1800 100 1133 0 1800 -37 1800
-100z m10200 -9600 c0 -55 69 -100 153 -100 187 0 847 -642 847 -825 0 -72 90
-196 200 -275 110 -79 200 -224 200 -322 0 -98 45 -178 100 -178 55 0 100 -90
100 -200 0 -110 45 -200 100 -200 55 0 100 -135 100 -300 0 -165 45 -300 100
-300 55 0 100 -90 100 -200 0 -110 45 -200 100 -200 55 0 100 -90 100 -200 0
-110 45 -200 100 -200 55 0 100 -90 100 -200 0 -110 45 -200 100 -200 55 0
100 -90 100 -200 0 -110 45 -200 100 -200 55 0 100 -135 100 -300 0 -165 45
-300 100 -300 55 0 100 -90 100 -200 0 -110 45 -200 100 -200 55 0 100 -90
100 -200 0 -110 45 -200 100 -200 55 0 100 -90 100 -200 0 -110 45 -200 100
-200 55 0 100 -90 100 -200 0 -110 45 -200 100 -200 55 0 100 -135 100 -300 0
-165 45 -300 100 -300 55 0 100 -90 100 -200 0 -110 45 -200 100 -200 55 0
100 -90 100 -200 0 -110 45 -200 100 -200 55 0 100 -90 100 -200 0 -110 45
-200 100 -200 55 0 100 -90 100 -200 0 -110 45 -200 100 -200 55 0 100 -225
100 -500 0 -275 -45 -500 -100 -500 -55 0 -100 -90 -100 -200 0 -110 -45 -200
-100 -200 -55 0 -100 -90 -100 -200 0 -110 -45 -200 -100 -200 -55 0 -100
-135 -100 -300 0 -165 -45 -300 -100 -300 -55 0 -100 -90 -100 -200 0 -110
-45 -200 -100 -200 -55 0 -100 -135 -100 -300 0 -165 -45 -300 -100 -300 -55
0 -100 -90 -100 -200 0 -110 -45 -200 -100 -200 -55 0 -100 -135 -100 -300 0
-165 -45 -300 -100 -300 -55 0 -100 -90 -100 -200 0 -110 -45 -200 -100 -200
-55 0 -100 -135 -100 -300 0 -165 -45 -300 -100 -300 -55 0 -100 -90 -100
-200 0 -110 -45 -200 -100 -200 -55 0 -100 -135 -100 -300 0 -165 -45 -300
-100 -300 -55 0 -100 -90 -100 -200 0 -110 -45 -200 -100 -200 -55 0 -100
-135 -100 -300 0 -165 -45 -300 -100 -300 -55 0 -100 -90 -100 -200 0 -110
-45 -200 -100 -200 -55 0 -100 90 -100 200 0 110 -45 200 -100 200 -55 0 -100
90 -100 200 0 110 -45 200 -100 200 -55 0 -100 90 -100 200 0 110 -45 200
-100 200 -55 0 -100 90 -100 200 0 110 -45 200 -100 200 -55 0 -100 90 -100
200 0 110 -45 200 -100 200 -55 0 -100 90 -100 200 0 110 -45 200 -100 200
-55 0 -100 135 -100 300 0 165 -45 300 -100 300 -55 0 -100 90 -100 200 0 110
-45 200 -100 200 -55 0 -100 90 -100 200 0 110 -45 200 -100 200 -55 0 -100
90 -100 200 0 110 -45 200 -100 200 -55 0 -100 90 -100 200 0 110 -45 200
-100 200 -55 0 -100 90 -100 200 0 110 -45 200 -100 200 -55 0 -100 135 -100
300 0 165 -45 300 -100 300 -55 0 -100 90 -100 200 0 110 -45 200 -100 200
-55 0 -100 90 -100 200 0 110 -45 200 -100 200 -55 0 -100 90 -100 200 0 110
-45 200 -100 200 -55 0 -100 90 -100 200 0 110 -45 200 -100 200 -55 0 -100
90 -100 200 0 110 -45 200 -100 200 -55 0 -100 135 -100 300 0 165 -45 300
-100 300 -55 0 -100 90 -100 200 0 110 -45 200 -100 200 -55 0 -100 90 -100
200 0 110 -45 200 -100 200 -55 0 -100 90 -100 200 0 110 -45 200 -100 200
-55 0 -100 90 -100 200 0 110 -45 200 -100 200 -222 0 -90 529 200 800 165
154 300 342 300 418 0 76 90 203 200 282 110 79 200 224 200 322 0 98 45 178
100 178 55 0 100 90 100 200 0 110 45 200 100 200 55 0 100 135 100 300 0 165
45 300 100 300 55 0 100 90 100 200 0 110 45 200 100 200 55 0 100 135 100
300 0 165 45 300 100 300 55 0 100 225 100 500 0 275 45 500 100 500 59 0 100
367 100 900 l0 900 300 0 c165 0 300 -45 300 -100z"/>
<path d="M61000 5100 c0 -55 -70 -100 -155 -100 -243 0 -645 -465 -645 -745 0
-140 45 -255 100 -255 55 0 100 -90 100 -200 0 -117 67 -200 160 -200 88 0
286 -135 440 -300 154 -165 352 -300 440 -300 93 0 160 -83 160 -200 0 -110
45 -200 100 -200 149 0 121 -293 -43 -457 -290 -290 -1057 -104 -1057 257 0
118 -242 400 -343 400 -31 0 -57 -161 -57 -357 0 -419 187 -643 535 -643 136
0 275 -56 307 -125 46 -100 70 -100 116 0 32 69 190 125 350 125 161 0 292 45
292 100 0 55 90 100 200 100 133 0 200 67 200 200 0 110 45 200 100 200 55 0
100 90 100 200 0 110 -45 200 -100 200 -55 0 -100 69 -100 153 0 174 -637 847
-801 847 -402 0 -737 776 -456 1057 164 164 457 192 457 43 0 -55 90 -100 200
-100 115 0 200 -67 200 -157 0 -152 226 -443 343 -443 31 0 57 180 57 400 0
333 -33 400 -200 400 -110 0 -200 45 -200 100 0 55 -180 100 -400 100 -220 0
-400 -45 -400 -100z"/>
<path d="M1800 4900 c0 -55 45 -100 100 -100 62 0 100 -533 100 -1400 0 -1333
-10 -1400 -200 -1400 -110 0 -200 -45 -200 -100 0 -61 451 -100 1153 -100
l1152 0 448 447 447 448 0 752 c0 435 -42 753 -100 753 -55 0 -100 90 -100
200 0 125 -67 200 -178 200 -98 0 -243 90 -322 200 -129 179 -259 200 -1222
200 -652 0 -1078 -40 -1078 -100z m1955 -345 c135 -135 245 -315 245 -400 0
-85 45 -155 100 -155 56 0 100 -267 100 -600 0 -333 -44 -600 -100 -600 -55 0
-100 -70 -100 -155 0 -327 -466 -645 -945 -645 l-455 0 0 1400 0 1400 455 0
c349 0 511 -57 700 -245z"/>
<path d="M8800 4800 c0 -110 -45 -200 -100 -200 -55 0 -100 -90 -100 -200 0
-110 -45 -200 -100 -200 -55 0 -100 -90 -100 -200 0 -110 -45 -200 -100 -200
-55 0 -100 -135 -100 -300 0 -165 -45 -300 -100 -300 -55 0 -100 -90 -100
-200 0 -110 -45 -200 -100 -200 -55 0 -100 -90 -100 -200 0 -110 -45 -200
-100 -200 -55 0 -100 -90 -100 -200 0 -133 -67 -200 -200 -200 -110 0 -200
-45 -200 -100 0 -56 267 -100 600 -100 333 0 600 44 600 100 0 55 -90 100
-200 100 -246 0 -287 627 -57 857 346 346 1457 117 1457 -300 0 -86 45 -157
100 -157 55 0 100 -135 100 -300 0 -293 11 -300 500 -300 275 0 500 45 500
100 0 55 -45 100 -100 100 -55 0 -100 80 -100 178 0 98 -90 243 -200 322 -110
79 -200 224 -200 322 0 98 -45 178 -100 178 -55 0 -100 90 -100 200 0 110 -45
200 -100 200 -55 0 -100 90 -100 200 0 110 -45 200 -100 200 -55 0 -100 90
-100 200 0 110 -45 200 -100 200 -55 0 -100 90 -100 200 0 110 -45 200 -100
200 -55 0 -100 90 -100 200 0 133 -67 200 -200 200 -133 0 -200 -67 -200 -200z
m200 -1000 c0 -110 45 -200 100 -200 55 0 100 -90 100 -200 0 -167 -67 -200
-400 -200 -333 0 -400 33 -400 200 0 110 45 200 100 200 55 0 100 90 100 200
0 133 67 200 200 200 133 0 200 -67 200 -200z"/>
<path d="M14600 4800 c0 -110 -45 -200 -100 -200 -55 0 -100 -90 -100 -200 0
-110 -45 -200 -100 -200 -55 0 -100 -90 -100 -200 0 -110 -45 -200 -100 -200
-55 0 -100 -135 -100 -300 0 -165 -45 -300 -100 -300 -55 0 -100 -90 -100
-200 0 -110 -45 -200 -100 -200 -55 0 -100 -90 -100 -200 0 -110 -45 -200
-100 -200 -55 0 -100 -90 -100 -200 0 -133 -67 -200 -200 -200 -110 0 -200
-45 -200 -100 0 -56 267 -100 600 -100 333 0 600 44 600 100 0 55 -90 100
-200 100 -246 0 -287 627 -57 857 346 346 1457 117 1457 -300 0 -86 45 -157
100 -157 55 0 100 -135 100 -300 0 -293 11 -300 500 -300 275 0 500 45 500
100 0 55 -45 100 -100 100 -55 0 -100 80 -100 178 0 98 -90 243 -200 322 -110
79 -200 224 -200 322 0 98 -45 178 -100 178 -55 0 -100 90 -100 200 0 110 -45
200 -100 200 -55 0 -100 90 -100 200 0 110 -45 200 -100 200 -55 0 -100 90
-100 200 0 110 -45 200 -100 200 -55 0 -100 90 -100 200 0 110 -45 200 -100
200 -55 0 -100 90 -100 200 0 133 -67 200 -200 200 -133 0 -200 -67 -200 -200z
m200 -1000 c0 -110 45 -200 100 -200 55 0 100 -90 100 -200 0 -167 -67 -200
-400 -200 -333 0 -400 33 -400 200 0 110 45 200 100 200 55 0 100 90 100 200
0 133 67 200 200 200 133 0 200 -67 200 -200z"/>
<path d="M19000 4900 c0 -55 90 -100 200 -100 190 0 200 -67 200 -1400 0
-1333 -10 -1400 -200 -1400 -110 0 -200 -45 -200 -100 0 -55 225 -100 500
-100 540 0 614 74 300 300 -177 127 -200 259 -200 1122 0 538 23 978 52 978
100 0 1548 -1498 1548 -1602 0 -162 674 -798 847 -798 131 0 153 219 153 1500
0 933 38 1500 100 1500 55 0 100 45 100 100 0 55 -180 100 -400 100 -220 0
-400 -45 -400 -100 0 -55 45 -100 100 -100 59 0 100 -367 100 -900 0 -495 -25
-900 -55 -900 -99 0 -545 489 -545 597 0 59 -292 398 -648 755 -606 606 -677
648 -1100 648 -249 0 -452 -45 -452 -100z"/>
<path d="M28200 4800 c0 -110 45 -200 100 -200 55 0 100 -90 100 -200 0 -110
45 -200 100 -200 55 0 100 -90 100 -200 0 -110 45 -200 100 -200 55 0 100 -90
100 -200 0 -110 45 -200 100 -200 55 0 100 -90 100 -200 0 -110 45 -200 100
-200 55 0 100 -90 100 -200 0 -110 45 -200 100 -200 55 0 100 -90 100 -200 0
-110 45 -200 100 -200 55 0 100 -90 100 -200 0 -110 26 -200 57 -200 117 0
343 291 343 443 0 86 45 157 100 157 55 0 100 135 100 300 0 165 26 300 57
300 117 0 343 -291 343 -443 0 -86 45 -157 100 -157 55 0 100 -71 100 -157 0
-152 226 -443 343 -443 31 0 57 90 57 200 0 110 45 200 100 200 55 0 100 135
100 300 0 165 45 300 100 300 55 0 100 90 100 200 0 110 45 200 100 200 55 0
100 135 100 300 0 165 45 300 100 300 55 0 100 135 100 300 0 165 45 300 100
300 55 0 100 90 100 200 0 133 67 200 200 200 110 0 200 45 200 100 0 55 -180
100 -400 100 -388 0 -529 -123 -275 -242 100 -46 100 -70 0 -116 -69 -32 -125
-190 -125 -350 0 -161 -45 -292 -100 -292 -55 0 -100 -135 -100 -300 0 -165
-45 -300 -100 -300 -55 0 -100 -135 -100 -300 0 -165 -26 -300 -57 -300 -117
0 -343 291 -343 443 0 86 -45 157 -100 157 -55 0 -100 86 -100 192 0 105 -56
218 -125 250 -100 46 -100 70 0 116 69 32 125 180 125 328 0 155 85 331 200
414 281 203 249 300 -100 300 -305 0 -403 -135 -175 -242 100 -46 100 -70 0
-116 -69 -32 -125 -145 -125 -250 0 -106 -45 -192 -100 -192 -55 0 -100 90
-100 200 0 110 -45 200 -100 200 -55 0 -100 90 -100 200 0 167 -67 200 -400
200 -220 0 -400 -45 -400 -100 0 -55 45 -100 100 -100 55 0 100 -90 100 -200
0 -110 45 -200 100 -200 55 0 100 -90 100 -200 0 -110 45 -200 100 -200 55 0
100 -90 100 -200 0 -110 45 -200 100 -200 55 0 100 -90 100 -200 0 -110 -45
-200 -100 -200 -55 0 -100 -90 -100 -200 0 -110 -45 -200 -100 -200 -55 0
-100 90 -100 200 0 110 -45 200 -100 200 -55 0 -100 90 -100 200 0 110 -45
200 -100 200 -55 0 -100 90 -100 200 0 110 -45 200 -100 200 -55 0 -100 90
-100 200 0 110 -45 200 -100 200 -55 0 -100 135 -100 300 0 283 -22 300 -400
300 -333 0 -400 -33 -400 -200z"/>
<path d="M35200 4800 c0 -110 45 -200 100 -200 61 0 100 -459 100 -1178 0
-1063 -19 -1192 -200 -1322 -324 -234 -236 -300 400 -300 333 0 600 44 600
100 0 55 -45 100 -100 100 -62 0 -100 567 -100 1500 l0 1500 -400 0 c-333 0
-400 -33 -400 -200z"/>
<path d="M39000 3500 c0 -933 -38 -1500 -100 -1500 -55 0 -100 -45 -100 -100
0 -62 500 -100 1300 -100 l1300 0 0 500 c0 275 -45 500 -100 500 -55 0 -100
-71 -100 -157 0 -202 -241 -443 -443 -443 -86 0 -157 -45 -157 -100 0 -55
-180 -100 -400 -100 l-400 0 0 1500 0 1500 -400 0 -400 0 0 -1500z"/>
<path d="M43800 4900 c0 -55 45 -100 100 -100 62 0 100 -533 100 -1400 0 -867
-38 -1400 -100 -1400 -55 0 -100 -45 -100 -100 0 -61 467 -100 1200 -100
l1200 0 0 400 c0 479 -37 489 -400 100 -233 -249 -358 -300 -740 -300 l-460 0
0 1400 c0 867 38 1400 100 1400 55 0 100 45 100 100 0 55 -225 100 -500 100
-275 0 -500 -45 -500 -100z"/>
<path d="M48800 4900 c0 -55 45 -100 100 -100 62 0 100 -533 100 -1400 0
-1333 -10 -1400 -200 -1400 -110 0 -200 -45 -200 -100 0 -61 467 -100 1200
-100 l1200 0 0 300 c0 349 -97 381 -300 100 -110 -152 -259 -200 -622 -200
l-478 0 0 700 0 700 378 0 c263 0 422 -61 522 -200 226 -314 300 -240 300 300
0 540 -74 614 -300 300 -100 -139 -259 -200 -522 -200 l-378 0 0 600 0 600
478 0 c363 0 512 -48 622 -200 203 -281 300 -249 300 100 l0 300 -1100 0
c-667 0 -1100 -39 -1100 -100z"/>
<path d="M53600 4922 c0 -43 90 -143 200 -222 179 -129 200 -259 200 -1222 0
-652 -40 -1078 -100 -1078 -55 0 -100 -90 -100 -200 0 -110 -45 -200 -100
-200 -55 0 -100 -45 -100 -100 0 -55 180 -100 400 -100 220 0 400 45 400 100
0 55 -45 100 -100 100 -60 0 -100 400 -100 1000 0 600 40 1000 100 1000 55 0
100 -90 100 -200 0 -110 45 -200 100 -200 55 0 100 -90 100 -200 0 -110 45
-200 100 -200 55 0 100 -90 100 -200 0 -110 45 -200 100 -200 55 0 100 -90
100 -200 0 -110 45 -200 100 -200 55 0 100 -71 100 -157 0 -152 226 -443 343
-443 31 0 57 90 57 200 0 110 45 200 100 200 55 0 100 90 100 200 0 110 45
200 100 200 55 0 100 90 100 200 0 110 45 200 100 200 55 0 100 135 100 300 0
165 45 300 100 300 55 0 100 90 100 200 0 110 45 200 100 200 60 0 100 -400
100 -1000 0 -600 -40 -1000 -100 -1000 -55 0 -100 -45 -100 -100 0 -56 267
-100 600 -100 333 0 600 44 600 100 0 55 -45 100 -100 100 -55 0 -100 225
-100 500 0 275 -45 500 -100 500 -59 0 -100 367 -100 900 0 533 41 900 100
900 55 0 100 45 100 100 0 55 -180 100 -400 100 -333 0 -400 -33 -400 -200 0
-110 -45 -200 -100 -200 -55 0 -100 -135 -100 -300 0 -165 -45 -300 -100 -300
-55 0 -100 -90 -100 -200 0 -110 -45 -200 -100 -200 -55 0 -100 -90 -100 -200
0 -110 -45 -200 -100 -200 -55 0 -100 -90 -100 -200 0 -110 -45 -200 -100
-200 -55 0 -100 90 -100 200 0 110 -45 200 -100 200 -55 0 -100 90 -100 200 0
110 -45 200 -100 200 -55 0 -100 80 -100 178 0 98 -90 243 -200 322 -110 79
-200 224 -200 322 0 98 -45 178 -100 178 -55 0 -100 90 -100 200 0 173 -67
200 -500 200 -275 0 -500 -35 -500 -78z"/>
</g>
</svg>
